PathFileType  4	(X/Y/Z) C:\Users\antoi\Documents\MyRepositories\mobilecap\ResultsAnalysis
DataRate	CameraRate	NumFrames	NumMarkers	Units	OrigDataRate	OrigDataStartFrame	OrigNumFrames
100.0	100.0	5	51	mm	100.0	102	271
Frame#	Time	r_knee			r_shank_antsup			r_ankle			r_calc			r_5meta			r_toe			L_knee			L_shank_antsup			L_ankle			L_calc			L_5meta			L_toe			r_sh2			r_sh3			r_sh4			L_sh2			L_sh3			r_thigh1			r_thigh2			r_thigh3			r_thigh4			r_thigh5			L_thigh1			L_thigh2			L_thigh3			L_thigh4			r.ASIS			r.PSIS			L.ASIS			L.PSIS			C7			R_Shoulder			L_Shoulder			R_Sternum			L_Sternum			R_humerus			R_elbow_med			R_elbow_lat			R_forearm			R_wrist_radius			R_wrist_ulna			L_humerus			L_elbow_med			L_elbow_lat			L_forearm			L_wrist_radius			L_wrist_ulna			R_HJC			L_HJC			R_HJC_reg			L_HJC_reg			
		X1	Y1	Z1	X2	Y2	Z2	X3	Y3	Z3	X4	Y4	Z4	X5	Y5	Z5	X6	Y6	Z6	X7	Y7	Z7	X8	Y8	Z8	X9	Y9	Z9	X10	Y10	Z10	X11	Y11	Z11	X12	Y12	Z12	X13	Y13	Z13	X14	Y14	Z14	X15	Y15	Z15	X16	Y16	Z16	X17	Y17	Z17	X18	Y18	Z18	X19	Y19	Z19	X20	Y20	Z20	X21	Y21	Z21	X22	Y22	Z22	X23	Y23	Z23	X24	Y24	Z24	X25	Y25	Z25	X26	Y26	Z26	X27	Y27	Z27	X28	Y28	Z28	X29	Y29	Z29	X30	Y30	Z30	X31	Y31	Z31	X32	Y32	Z32	X33	Y33	Z33	X34	Y34	Z34	X35	Y35	Z35	X36	Y36	Z36	X37	Y37	Z37	X38	Y38	Z38	X39	Y39	Z39	X40	Y40	Z40	X41	Y41	Z41	X42	Y42	Z42	X43	Y43	Z43	X44	Y44	Z44	X45	Y45	Z45	X46	Y46	Z46	X47	Y47	Z47	X48	Y48	Z48	X49	Y49	Z49	X50	Y50	Z50	X51	Y51	Z51	

102	1.01000000	-847.01740	715.25136	-431.31944	-844.93055	641.30531	-431.52353	-1125.92149	458.41112	-428.93646	-1191.29221	464.63414	-473.47634	-1072.83182	359.08430	-398.34352	-1027.63690	353.50047	-451.04163	-873.68966	701.51146	-739.37053	-888.96544	607.43032	-722.67873	-1153.95726	451.48512	-710.94173	-1221.59291	449.05467	-662.90695	-1098.56131	355.68070	-741.86885	-1041.87425	350.95905	-694.09424	-934.21670	571.35904	-418.63473	-883.53522	700.70138	-401.58301	-983.38353	635.20570	-394.03734	-931.59925	672.25016	-766.83736	-1024.55593	591.66784	-769.14930	-849.03649	967.07042	-397.08972	-822.44096	856.87595	-406.10015	-878.55914	820.83168	-405.91633	-958.27360	940.81871	-410.38438	-927.30714	829.47965	-428.79063	-877.58450	980.10535	-782.86333	-848.63480	845.49158	-766.19287	-987.73899	962.25113	-769.46996	-957.69825	828.83681	-734.00099	-817.98150	1132.02451	-484.33553	-1009.52941	1233.83816	-544.40403	-836.07202	1136.56433	-706.55493	-1014.36651	1231.53174	-627.78591	-787.34783	1615.00385	-582.87732	-728.72123	1579.19533	-459.30491	-745.17795	1588.00506	-706.94075	-677.67704	1531.62919	-565.29707	-682.87447	1525.31993	-600.27332	-663.92113	1525.19544	-388.57243	-590.05715	1334.35456	-300.81335	-569.38445	1394.72322	-263.48928	-502.11888	1442.32980	-312.72546	-393.03152	1475.46315	-392.24498	-372.12302	1455.40194	-365.99073	-695.90550	1546.97203	-792.23618	-587.04323	1361.86373	-875.66196	-583.06145	1427.13359	-909.72265	-494.20316	1468.03153	-864.54199	-394.09929	1495.47313	-794.77437	-374.58401	1471.76194	-820.39587	-926.07639	1079.02442	-485.01144	-939.69802	1083.27774	-692.02768	-912.46835	1097.57061	-508.41447	-920.98945	1093.50820	-655.29151	
103	1.02000000	-839.77667	726.84324	-429.01926	-838.21029	653.96340	-428.03800	-1115.19418	465.39310	-428.44539	-1178.75517	476.10426	-472.78158	-1069.06789	361.48188	-398.22363	-1024.28314	352.95845	-450.53835	-867.13216	712.02423	-742.82231	-882.17575	618.52370	-727.22825	-1145.54176	458.28598	-713.59527	-1212.16797	460.31125	-665.67597	-1095.64342	357.43065	-742.81370	-1039.13067	350.17894	-695.20662	-927.01235	583.26285	-415.79432	-877.99901	713.27939	-399.32553	-977.22876	647.06210	-392.63271	-925.64636	683.60957	-770.01938	-1018.30490	602.61395	-772.04797	-835.65934	979.02301	-396.62878	-811.13991	867.99671	-404.51536	-867.99019	833.17142	-403.92693	-945.40522	954.72926	-408.47301	-916.52306	842.62058	-426.76466	-864.02568	991.00418	-784.11126	-838.01969	855.50205	-768.75804	-974.57013	975.11776	-771.94316	-947.15788	841.00299	-736.85242	-803.06182	1146.63419	-485.17924	-995.54057	1244.59590	-545.82254	-821.12076	1150.30122	-706.45521	-999.97542	1242.24910	-629.11105	-780.18759	1629.39493	-583.62156	-722.93262	1594.46812	-461.04472	-739.18963	1603.72229	-706.32061	-670.45932	1547.71316	-565.16633	-675.74492	1541.22446	-600.61285	-657.18936	1543.81399	-389.45075	-579.65691	1355.21109	-300.26572	-559.67665	1416.54361	-263.00727	-494.32570	1465.51349	-313.23525	-387.30183	1501.12945	-394.73298	-365.50724	1482.26457	-368.36722	-689.70488	1566.17392	-791.96047	-576.71332	1383.72426	-877.08279	-573.83850	1449.62809	-910.94641	-486.08383	1491.91591	-864.88871	-386.91282	1520.75298	-794.10795	-366.73987	1497.99136	-819.88944	-910.05111	1091.70869	-485.57750	-923.27431	1095.11021	-692.63581	-896.88387	1110.26514	-509.50471	-904.67311	1106.14334	-655.78605	
104	1.03000000	-831.22629	739.09338	-427.01562	-829.99545	667.01370	-425.04148	-1102.36804	472.78732	-427.63148	-1163.76264	488.56137	-472.04223	-1064.32310	364.41435	-397.82502	-1020.21958	352.29799	-449.85685	-859.21470	723.34076	-745.97375	-873.76607	630.53010	-731.84786	-1135.17939	465.79430	-716.32496	-1200.44661	472.54778	-668.83293	-1091.85769	359.93876	-744.05186	-1035.90000	349.51799	-696.19575	-918.14244	595.44588	-413.18147	-870.78562	726.30928	-397.43457	-969.39047	659.13359	-391.32033	-918.07922	695.98843	-773.38022	-1010.54470	614.28059	-774.66940	-822.30787	991.52636	-396.00006	-799.49324	879.90441	-402.81249	-856.80605	845.98373	-402.08819	-932.27387	968.62518	-406.80358	-905.15698	856.02014	-425.08006	-850.11125	1002.49144	-785.46079	-826.51719	866.30843	-771.35964	-961.02403	988.10570	-774.51344	-935.75674	853.43046	-739.61500	-788.44634	1161.88197	-485.87507	-981.77688	1255.66629	-547.32186	-806.32105	1164.21912	-706.27938	-985.74917	1253.21964	-630.39658	-772.72720	1643.34694	-584.34089	-717.08797	1609.45770	-462.79573	-732.98199	1618.62519	-705.96460	-662.92376	1563.19403	-564.89338	-668.11366	1556.83091	-601.10167	-650.31891	1561.76448	-390.47344	-570.02345	1375.12182	-299.49933	-550.53542	1437.27924	-262.75107	-486.59499	1487.08184	-313.60066	-381.38757	1524.48177	-396.85631	-359.09065	1506.78340	-370.25101	-683.17257	1584.57980	-792.01900	-567.12314	1404.17984	-878.46621	-564.96925	1471.00069	-912.17832	-477.98002	1514.10307	-865.69328	-379.66333	1543.97378	-793.78026	-358.84980	1522.17409	-819.89358	-894.20350	1104.94150	-485.92141	-906.95714	1107.14031	-693.02414	-881.50559	1123.33348	-510.48340	-888.47268	1119.04139	-656.20661	
105	1.04000000	-821.26298	751.60254	-425.17573	-819.95651	680.04501	-422.54787	-1087.21360	480.10263	-425.99692	-1145.94267	501.23172	-471.25239	-1058.59496	367.66100	-397.17200	-1015.36614	351.48523	-449.03798	-849.71475	735.11617	-748.67298	-863.83215	643.13908	-735.93499	-1122.61966	473.75705	-719.50750	-1186.29561	485.59944	-672.23905	-1087.15650	363.10422	-745.47546	-1032.03874	349.09660	-697.28078	-907.10393	607.31241	-410.91446	-861.67990	738.97265	-395.86775	-959.38327	670.52762	-390.12645	-908.96360	708.84389	-776.58834	-1001.12141	626.14780	-776.94687	-809.17678	1004.25757	-395.43121	-787.59873	892.28152	-401.38259	-845.32469	858.89267	-400.53935	-919.28566	982.16307	-405.63752	-893.51722	869.32514	-423.76747	-836.22702	1014.39924	-787.04086	-814.39816	877.78043	-773.90825	-947.40498	1000.88701	-776.97638	-923.81055	865.96432	-742.13003	-774.44764	1177.35029	-486.52078	-968.35520	1266.82715	-548.76399	-791.86607	1178.08018	-705.96562	-971.93781	1264.28599	-631.60393	-765.02716	1656.61192	-584.97091	-710.81683	1623.78596	-464.54892	-726.43196	1632.52467	-705.84896	-654.62574	1577.85070	-565.74779	-658.76911	1572.17179	-602.79306	-643.20240	1579.14516	-391.32771	-560.93950	1393.66741	-298.77717	-541.87084	1456.58386	-262.73413	-478.85443	1506.90368	-313.87278	-375.06283	1545.32547	-398.58982	-352.64194	1528.75768	-371.52399	-676.69607	1601.72176	-792.05330	-558.14133	1423.19063	-880.47320	-556.24537	1490.86980	-913.54204	-469.64494	1534.37124	-866.92454	-372.11009	1564.87956	-793.83429	-350.72898	1544.30321	-820.90153	-878.83457	1118.38229	-486.09236	-891.03678	1119.20583	-693.23786	-866.48682	1136.53079	-511.31914	-872.76032	1132.08072	-656.40648	
106	1.05000000	-810.07529	763.94327	-423.46118	-808.08347	692.58772	-420.68036	-1070.46161	486.84697	-423.40715	-1126.02285	513.00751	-470.19673	-1051.94249	370.72940	-396.66126	-1009.24111	351.23575	-447.72643	-838.80030	747.14919	-750.73503	-852.39421	655.85540	-739.05895	-1107.80690	481.72910	-723.25393	-1169.55746	499.13679	-675.99321	-1081.46667	366.83322	-747.03514	-1027.62031	349.00771	-698.63332	-893.94000	618.47091	-408.95372	-850.93169	750.95889	-394.66770	-947.36452	680.84890	-388.96206	-898.47317	721.39974	-778.66305	-989.93419	637.96037	-779.06366	-796.39959	1016.55740	-395.19203	-775.55825	904.49655	-400.41184	-833.72461	871.45652	-399.38890	-906.67047	995.10479	-405.14128	-881.77567	882.16118	-422.61412	-822.67915	1026.41189	-788.60639	-801.94714	889.43693	-775.92543	-933.88169	1013.20168	-779.02070	-911.56521	878.34609	-744.02087	-761.20380	1192.50514	-487.34467	-955.33899	1277.90838	-549.99937	-777.92417	1191.85780	-705.67740	-958.54472	1275.32057	-632.80897	-756.82973	1668.95122	-585.86633	-703.89772	1637.26493	-466.19975	-719.41013	1645.42009	-706.02848	-645.35187	1591.51586	-567.70373	-647.84045	1586.79014	-605.69232	-635.90467	1595.96368	-392.09545	-552.42179	1410.58014	-298.09102	-533.51243	1474.18270	-262.82579	-470.93812	1524.73071	-314.04718	-368.15632	1563.53941	-399.91603	-345.56270	1547.66156	-372.63720	-670.22366	1617.44593	-792.15009	-549.51467	1440.78216	-883.73548	-547.51491	1508.92253	-915.11511	-460.96085	1552.59849	-868.51625	-364.03617	1583.20718	-794.32908	-342.26980	1563.95021	-822.65137	-864.10641	1131.59652	-486.38290	-875.71428	1131.31043	-693.56564	-852.08651	1149.64945	-512.32693	-857.67518	1145.13900	-656.67034	
